<?xml version="1.0" encoding="UTF-8"?>
<svg version="1.1" viewBox="0 0 2000 2000" width="1280" height="1280" xmlns="http://www.w3.org/2000/svg">
<path transform="translate(0)" d="m0 0h2e3v2e3h-2e3z" fill="#FEFEFD"/>
<path transform="translate(257,748)" d="m0 0h30l27 4 14 4 16 6 14 8 11 9 9 10 9 15 5 12 4 17 2 13 1 14v13l-2 21-5 21-6 14-9 14-9 10-11 8-16 8-20 6-25 4-14 1h-25l-9-3-6-7-3-12-1-16v-60l2-91 1-31 4-6 8-5z" fill="#020101"/>
<path transform="translate(998,825)" d="m0 0h15l11 4 11 8 9 11 8 15 5 14 4 16 3 23 2 38v32l-3 18-5 16-8 16-7 11-11 12-13 9-13 6-12 3-7 1h-11l-14-2-14-5-12-7-11-10-6-9-1-2v-9l3-6 5-3h10l7 4 8 8 9 6 12 4 5 1h10l10-3 10-6 10-9 7-10 7-14 3-12 1-7v-26l-4 2-14 8-12 4-8 1h-9l-10-2-14-7-9-8-7-10-7-14-4-18v-20l3-15 6-13 6-10 8-10 9-9 13-9 12-5z" fill="#020101"/>
<path transform="translate(268,777)" d="m0 0h18l16 2 18 5 17 8 10 7 5 4 9 12 6 13 4 18 1 8v18l-2 15-4 14-7 16-8 11-8 8-12 5-20 5-33 5h-7l-1-1-2-19-2-40v-102l1-10z" fill="#FEFCFC"/>
<path transform="translate(1154,819)" d="m0 0h14l16 4 13 7 11 11 8 16 3 12 3 32 4 49 1 7v12l-5 6-4 2h-9l-5-3-3-7-4-19v-3l-5 3-5 5-11 10-15 7-10 2h-13l-10-3-10-6-6-7-5-10-1-4v-17l4-12 7-12 9-9 14-10 11-5 8-2h14l14 2 2-1v-9l-5-10-9-6-8-2h-10l-11 3-9 5-7 7-7 9-3 3-5 2h-7l-6-3-3-4-1-4v-8l4-9 7-8 7-7 11-7 13-6z" fill="#020101"/>
<path transform="translate(651,819)" d="m0 0h13l14 3 16 8 11 11 6 11 4 11 2 13 6 75 1 6v12l-5 6-4 2h-8l-6-3-4-11-3-18-11 9-9 8-16 8-10 2h-13l-10-3-10-6-6-7-5-10-1-4v-17l4-12 7-12 9-9 13-9 12-6 9-2h13l14 2 2-1v-9l-4-8-5-5-8-4-5-1h-10l-11 3-9 5-8 8-4 6-5 5-5 2h-7l-6-3-3-4-1-3v-9l4-9 7-8 7-7 13-8 11-5z" fill="#020101"/>
<path transform="translate(455,747)" d="m0 0 8 1 5 5 3 7v16l-3 68 7-4 10-7 12-5 6-1h9l12 3 10 6 7 6 7 10 7 16 3 12 2 18 1 31v39l-3 5-7 4h-9l-5-3-3-4-1-4-3-64-3-22-4-12-5-8-3-2-9-1-10 3-9 7-7 8-6 12-3 11-1 8v29l3 18v12l-2 8-5 6-3 1h-8l-5-3-4-6-3-14-4-34-2-35v-20l2-46 4-63 3-6 6-5z" fill="#020101"/>
<path transform="translate(1647,823)" d="m0 0h19l14 4 11 7 8 8 8 14 5 14 5 24 2 22v40l-3 12-6 7-2 1h-9l-4-4-3-7-1-14v-35l-2-21-4-18-8-16-5-5-5-4-11-3-9 2-12 7-10 13-7 15-5 18-3 20-1 10-1 26-2 9-6 7-2 1h-8l-6-4-3-4-1-7-2-75-1-23v-30l4-6 5-3 5-1 7 2 4 4 2 5 1 15 2-1 3-5 7-7 11-7 11-5z" fill="#E76465"/>
<path transform="translate(835,823)" d="m0 0h14l12 3 12 6 9 8 7 11 7 16 4 18 2 13 2 26v19l-2 20-3 8-4 4-8 1-5-2-3-4-2-6-1-13v-38l-2-21-5-19-8-14-8-7-9-3h-7l-9 3-9 7-7 8-8 16-5 15-4 21-2 21-1 23-3 9-5 4-7 1-8-4-3-6-3-87v-47l5-6 4-2h8l5 3 3 5 1 19 3-3 7-9 11-8 12-6 6-2z" fill="#020101"/>
<path transform="translate(1271,820)" d="m0 0h7l5 3 6 12 3 11 8-10 11-8 7-3 5-1 13 1 12 6 7 8 6 13 3 14v18l-3 5-5 4h-9l-5-3-4-9-3-20-3-9-7-1-6 4-8 13-5 12-3 12-2 16v61l-5 6-4 2-9-1-6-4-3-8-1-7-1-35-3-34-8-48v-8l3-8z" fill="#020101"/>
<path transform="translate(1507,814)" d="m0 0 9 1 6 5 2 4 1 7-1 78-1 61-4 6-6 4h-9l-6-4-3-4-1-4v-40l1-85 1-20 6-7z" fill="#E76465"/>
<path transform="translate(999,855)" d="m0 0h10l8 7 5 11 4 15 2 14-1 13-4 12-8 11-7 6-7 3h-14l-10-5-6-9-4-10-1-7 1-16 4-13 7-14 9-11 9-6z" fill="#FEFBFA"/>
<path transform="translate(1533,732)" d="m0 0 7 1 5 3 3 5 1 10-4 12-7 11-12 15-7 5-8 1-7-4-7-7-10-14-7-14v-12l4-5 7-4h9l9 6 3 3 7-6 7-4z" fill="#E76465"/>
<path transform="translate(1420,931)" d="m0 0h13l8 4 6 7 2 5v13l-4 8-8 6-8 2-11-1-8-5-5-8-1-3v-12l4-8 7-6z" fill="#020101"/>
<path transform="translate(662,904)" d="m0 0h12l5 5-2 11-6 11-8 8-8 4-7 2h-10l-6-5-2-5v-9l5-8 10-8 12-5z" fill="#FEF8F7"/>
<path transform="translate(1165,904)" d="m0 0h12l4 3v10l-7 14-8 8-8 4-7 2h-10l-6-5-2-5v-9l5-8 10-8 12-5z" fill="#FEF9F8"/>
</svg>
    